<?xml version="1.0" encoding="UTF-8" ?>
<!DOCTYPE svg PUBLIC "-//W3C//DTD SVG 1.1//EN" "http://www.w3.org/Graphics/SVG/1.1/DTD/svg11.dtd">
<svg width="206pt" height="202pt" viewBox="0 0 206 202" version="1.1" xmlns="http://www.w3.org/2000/svg">
<g id="#1693c1ff">
<path fill="#1693c1" opacity="1.00" d=" M 84.14 16.85 C 87.05 13.87 91.53 15.15 94.87 13.15 C 95.38 14.00 95.90 14.85 96.41 15.70 C 99.71 16.76 100.66 20.91 99.92 23.93 C 98.54 26.10 97.35 28.55 95.10 29.97 C 95.24 30.33 95.53 31.03 95.67 31.39 C 92.70 31.73 89.99 33.26 86.97 33.25 C 85.84 32.54 84.68 31.90 83.50 31.30 C 82.84 28.56 81.44 25.87 81.80 22.98 C 82.34 20.85 83.43 18.92 84.14 16.85 Z" />
<path fill="#1693c1" opacity="1.00" d=" M 116.70 16.80 C 120.58 15.79 124.58 16.05 128.51 16.50 C 129.13 19.09 130.12 21.55 130.87 24.10 C 130.87 26.96 129.88 29.74 129.69 32.60 C 128.65 33.31 127.61 34.14 127.63 35.52 C 127.08 38.62 125.71 41.61 123.43 43.81 C 122.91 47.03 120.44 49.32 118.58 51.83 C 116.16 55.62 112.94 58.98 111.45 63.31 C 107.71 64.34 107.53 69.02 104.34 70.81 C 101.61 72.52 99.28 74.77 97.17 77.19 C 95.91 77.31 94.64 77.43 93.38 77.54 C 93.10 77.96 92.54 78.82 92.26 79.25 C 89.02 78.96 84.98 80.41 82.39 77.84 C 80.10 77.54 78.65 75.66 76.57 74.90 C 75.26 73.13 73.95 71.36 72.50 69.70 C 69.99 66.77 66.95 63.76 66.70 59.68 C 64.70 58.89 64.75 56.61 64.05 54.92 C 59.65 48.24 59.86 39.61 59.96 31.87 C 60.52 30.83 61.07 29.78 61.63 28.73 C 63.50 28.76 65.37 28.79 67.24 28.84 C 68.14 30.37 69.22 31.79 70.53 33.00 C 71.36 34.49 72.25 35.98 73.47 37.20 C 76.38 39.93 78.78 43.09 81.25 46.20 C 82.90 47.52 84.45 49.01 85.60 50.79 C 87.24 50.79 88.88 50.78 90.51 50.77 C 91.49 48.76 92.51 46.78 93.51 44.79 C 94.04 44.78 95.10 44.77 95.63 44.76 C 96.21 43.08 96.73 41.37 97.18 39.65 C 100.34 37.77 101.23 33.92 104.13 31.89 C 104.64 30.48 105.19 29.00 106.56 28.20 C 107.58 25.06 110.72 23.72 112.21 20.94 C 114.05 19.98 115.70 18.66 116.70 16.80 Z" />
</g>
<g id="#fece7aff">
<path fill="#fece7a" opacity="1.00" d=" M 153.64 35.46 C 156.57 36.60 157.67 39.54 157.09 42.50 C 153.58 49.30 149.38 55.69 145.17 62.07 C 143.90 64.09 143.24 66.41 143.07 68.78 C 149.14 70.94 155.10 73.46 161.31 75.23 C 163.76 76.76 166.67 76.88 169.40 77.52 C 176.04 80.85 184.26 82.84 188.23 89.76 C 190.28 92.85 188.22 96.28 186.39 98.88 C 185.38 99.44 184.39 100.04 183.44 100.70 C 179.85 101.02 176.32 102.44 172.69 101.74 C 167.62 101.01 162.32 101.57 157.47 99.62 C 144.05 95.92 130.07 92.00 119.42 82.55 C 115.82 77.54 116.07 71.02 117.45 65.29 C 118.63 64.32 119.07 62.87 119.56 61.49 C 123.16 57.57 126.25 53.19 129.64 49.08 C 132.74 47.31 134.76 44.17 137.97 42.58 C 140.35 41.30 142.31 39.35 144.84 38.34 C 147.52 36.66 150.77 36.64 153.64 35.46 Z" />
<path fill="#fece7a" opacity="1.00" d=" M 160.79 59.94 C 160.53 55.70 165.24 54.42 168.33 53.17 C 170.85 53.19 173.20 54.35 175.57 55.09 C 178.52 57.10 181.38 60.19 181.07 64.03 C 181.37 66.75 179.30 68.73 177.65 70.58 C 174.37 71.26 170.81 71.63 167.59 70.56 C 164.02 68.21 159.57 64.81 160.79 59.94 Z" />
</g>
<g id="#83519aff">
<path fill="#83519a" opacity="1.00" d=" M 33.19 51.13 C 35.32 50.77 37.39 50.04 39.11 48.70 C 39.91 49.41 40.70 50.13 41.49 50.85 C 41.97 50.87 42.94 50.92 43.43 50.94 C 44.42 51.71 45.42 52.48 46.44 53.22 C 47.96 53.92 49.49 54.60 51.04 55.24 C 51.06 55.64 51.12 56.45 51.15 56.86 C 51.62 56.86 52.57 56.86 53.04 56.86 C 53.07 57.36 53.13 58.36 53.16 58.86 C 53.65 58.87 54.62 58.88 55.10 58.88 C 55.12 59.36 55.15 60.33 55.17 60.81 C 55.53 60.83 56.26 60.88 56.63 60.90 C 57.35 62.31 58.25 63.60 59.23 64.84 C 59.82 64.87 61.01 64.93 61.60 64.95 C 63.02 69.47 66.82 72.56 68.56 76.89 C 68.87 76.86 69.49 76.78 69.80 76.74 C 70.31 78.12 70.86 79.49 71.38 80.86 C 71.97 80.87 73.15 80.89 73.74 80.90 C 73.87 83.68 74.99 86.22 76.37 88.60 C 78.99 89.57 79.07 92.64 79.34 95.00 C 79.66 98.20 81.26 101.08 81.91 104.21 C 81.42 105.00 80.89 105.76 80.31 106.50 C 79.73 108.58 79.23 110.69 78.97 112.84 C 77.78 112.98 76.59 113.13 75.41 113.27 C 74.11 114.53 72.82 115.80 71.54 117.08 C 71.06 117.14 70.12 117.26 69.65 117.32 C 68.63 117.70 67.60 118.06 66.57 118.40 C 65.55 118.74 64.53 119.07 63.51 119.40 C 62.07 122.30 58.12 120.73 55.50 121.23 C 54.47 121.78 53.45 122.33 52.42 122.89 C 48.83 122.95 45.23 123.02 41.64 122.85 C 39.90 122.26 38.11 121.84 36.35 121.32 C 35.10 121.21 33.84 121.11 32.58 121.00 C 30.02 119.54 25.54 118.39 26.91 114.50 C 28.94 112.50 31.65 111.29 33.69 109.26 C 36.75 108.83 39.60 107.66 42.48 106.57 C 43.55 103.99 46.78 105.12 48.97 104.72 C 48.93 104.28 48.86 103.40 48.82 102.97 C 49.48 102.93 50.79 102.85 51.45 102.81 C 52.68 101.41 53.93 100.03 55.06 98.54 C 54.96 97.55 54.86 96.56 54.76 95.57 C 53.58 94.27 52.48 92.91 51.47 91.47 C 49.44 90.05 48.74 87.58 47.60 85.50 C 45.26 84.10 44.62 81.28 43.45 79.00 C 43.15 79.10 42.54 79.29 42.24 79.38 C 39.85 72.99 33.68 68.46 32.39 61.61 C 31.50 58.15 31.34 54.32 33.19 51.13 Z" />
<path fill="#83519a" opacity="1.00" d=" M 27.43 78.20 C 28.50 78.50 29.58 78.78 30.66 79.05 C 31.08 79.47 31.93 80.33 32.35 80.76 C 32.98 80.79 34.23 80.86 34.86 80.89 C 34.96 81.54 35.15 82.84 35.25 83.48 C 37.85 86.84 37.72 91.53 35.74 95.16 C 35.19 95.19 34.08 95.26 33.52 95.29 C 32.36 95.93 31.20 96.57 30.05 97.21 C 28.04 95.88 25.75 95.09 23.34 94.89 C 22.98 93.74 22.59 92.59 22.17 91.46 C 20.67 88.28 20.64 84.75 20.99 81.31 C 22.81 79.65 24.97 78.56 27.43 78.20 Z" />
</g>
<g id="#e8262fff">
<path fill="#e8262f" opacity="1.00" d=" M 129.08 100.70 C 129.38 101.16 129.99 102.07 130.30 102.53 C 139.87 99.02 149.89 103.06 158.35 107.58 C 159.90 108.32 161.40 109.17 162.69 110.32 C 163.07 110.43 163.84 110.64 164.22 110.74 C 166.87 113.35 169.95 115.50 172.45 118.28 C 173.44 119.15 174.43 120.04 175.44 120.90 C 176.68 122.35 177.87 123.85 178.91 125.46 C 178.87 126.45 178.85 127.45 178.82 128.44 C 178.49 129.13 177.82 130.49 177.49 131.18 C 170.75 132.56 164.37 129.66 157.98 128.07 C 153.19 127.95 148.84 125.46 144.01 125.90 C 143.75 135.26 143.31 144.62 143.36 153.99 C 143.79 161.36 142.56 168.97 138.43 175.22 C 136.98 175.93 135.57 176.70 134.17 177.50 C 133.42 179.56 132.62 179.58 131.78 177.56 C 129.54 176.77 127.35 175.84 125.25 174.73 C 125.19 174.20 125.07 173.15 125.02 172.63 C 122.94 169.30 122.36 165.35 120.67 161.85 C 119.50 158.73 120.33 155.32 119.70 152.10 C 118.15 145.51 119.09 138.69 118.80 131.99 C 118.30 124.95 120.25 118.05 122.44 111.43 C 122.97 110.23 123.48 108.96 124.67 108.25 C 125.26 107.17 125.83 106.09 126.39 105.00 C 126.88 104.82 127.86 104.45 128.35 104.27 C 128.58 103.08 128.83 101.89 129.08 100.70 Z" />
<path fill="#e8262f" opacity="1.00" d=" M 154.72 140.88 C 156.75 140.71 158.91 140.58 160.22 138.75 L 159.89 140.66 C 160.48 140.71 161.68 140.80 162.28 140.85 C 165.74 143.53 168.61 148.39 166.68 152.77 C 165.99 154.72 165.83 156.80 165.71 158.86 C 163.86 159.41 161.99 159.93 160.09 160.24 C 159.64 161.19 159.20 162.14 158.77 163.10 C 158.02 162.04 157.05 161.26 155.82 160.86 C 154.82 160.15 153.70 159.72 152.47 159.69 C 148.85 153.76 149.21 145.55 154.72 140.88 Z" />
</g>
<g id="#43b254ff">
<path fill="#43b254" opacity="1.00" d=" M 95.76 119.07 C 96.92 119.11 97.93 119.52 98.60 120.50 C 100.71 120.94 103.72 120.14 104.63 122.71 C 105.13 122.77 106.15 122.90 106.65 122.96 C 107.37 124.72 108.10 126.59 110.00 127.37 L 109.98 128.70 C 110.45 128.73 111.40 128.78 111.87 128.81 C 112.07 136.52 112.75 144.30 111.39 151.94 C 110.77 154.48 112.31 158.19 109.43 159.64 C 108.25 165.96 104.19 171.22 101.61 177.01 C 100.51 177.15 99.40 177.29 98.30 177.43 C 98.05 177.94 97.57 178.95 97.33 179.46 C 96.83 177.56 96.44 175.31 94.13 174.93 C 93.27 171.00 92.65 167.01 92.87 162.97 C 93.14 157.81 91.60 152.80 91.70 147.65 C 91.41 146.99 90.83 145.69 90.54 145.04 C 88.41 145.29 85.97 144.73 84.12 146.06 C 81.62 147.80 78.37 147.14 75.52 147.47 C 75.04 149.29 73.04 148.86 71.70 149.38 C 66.90 150.67 62.47 153.63 57.36 153.38 C 56.91 153.80 56.00 154.63 55.54 155.04 C 50.56 155.25 45.57 155.36 40.59 155.02 C 38.26 152.56 35.94 149.69 37.01 146.02 C 39.38 143.19 40.81 139.68 43.43 137.02 C 44.08 136.88 44.74 136.75 45.40 136.62 C 46.81 135.39 48.30 134.25 49.64 132.95 C 50.53 132.87 51.41 132.79 52.29 132.71 C 53.69 131.17 55.49 130.07 57.27 129.04 C 59.91 128.44 62.86 128.84 65.15 127.12 C 67.24 125.70 69.64 124.96 72.03 124.26 C 74.63 122.28 78.02 122.83 81.06 122.57 C 80.96 122.13 80.76 121.27 80.66 120.83 C 85.69 120.56 91.03 121.10 95.76 119.07 Z" />
<path fill="#43b254" opacity="1.00" d=" M 70.56 157.16 C 71.50 157.16 72.45 157.16 73.40 157.18 C 74.17 158.28 75.41 158.71 76.57 159.24 C 77.48 159.78 78.41 160.31 79.33 160.83 C 80.98 164.99 80.42 169.55 77.58 173.04 C 76.58 173.13 75.57 173.23 74.57 173.33 C 72.96 176.62 68.55 174.63 65.64 175.02 C 64.34 173.43 62.98 171.83 61.22 170.74 C 59.18 167.59 61.25 164.00 62.33 160.90 C 62.94 160.86 64.14 160.79 64.74 160.75 C 64.79 160.11 64.83 159.47 64.88 158.83 C 66.87 158.59 69.43 159.39 70.56 157.16 Z" />
</g>
</svg>
